<svg xmlns="http://www.w3.org/2000/svg" width="1065.09" height="1161.034" viewBox="0 0 1065.09 1161.034">
  <g id="Group_17846" data-name="Group 17846" transform="translate(297.99 0)">
    <path id="Path_45366" data-name="Path 45366" d="M1859.716,1398.592c-52.3,0-104.594-.067-156.89.119-4.573.016-6.8-1.519-9.019-5.378q-78.5-136.352-157.344-272.5c-1.687-2.918-1.619-4.947.04-7.814q79.337-137.134,158.449-274.4c1.484-2.572,3.074-3.585,6.129-3.583q158.424.134,316.847,0c3.221,0,4.905,1.037,6.484,3.776q79.112,137.263,158.468,274.386c1.775,3.064,1.324,5.067-.256,7.8q-79.187,136.961-158.186,274.035c-1.622,2.816-3.385,3.638-6.519,3.631Q1938.819,1398.513,1859.716,1398.592Z" transform="translate(-1416.923 -237.677)" fill="#f8a42b" style="mix-blend-mode: multiply;isolation: isolate"/>
    <path id="Path_45367" data-name="Path 45367" d="M2067.921,1760.193c-85.851,0-171.706-.11-257.557.2-7.508.026-11.157-2.493-14.806-8.828q-128.868-223.841-258.3-447.351c-2.77-4.79-2.658-8.122.066-12.828q130.242-225.125,260.116-450.461c2.435-4.223,5.046-5.885,10.062-5.882q260.075.22,520.149,0c5.289-.006,8.053,1.7,10.644,6.2q129.875,225.337,260.147,450.444c2.914,5.029,2.174,8.318-.42,12.805q-130,224.84-259.684,449.867c-2.663,4.623-5.557,5.972-10.7,5.96Q2197.78,1760.064,2067.921,1760.193Z" transform="translate(-1833.218 -835.035)" fill="#f8a42b" style="mix-blend-mode: multiply;isolation: isolate"/>
  </g>
</svg>
